# xmcd
#
# Track frame offsets: 
#        150
#        3613
#        28665
#        42923
#        57259
#        76855
#        106398
#        129037
#        140172
#        159675
#        178639
#        201716
#
# Disc length: 2798 seconds
#
# Revision: 0
# Processed by: cddbd v1.5.2PL0 Copyright (c) Steve Scherf et al.
# Submitted via: ExactAudioCopy v1.3
#
DISCID=a40aec0c
DTITLE=RHYMOI MUSIC - Glimpses Of tibet
DYEAR=2007
DGENRE=Country
TTITLE0=Six-Syllable Mantra Prayer 
TTITLE1=Rite
TTITLE2=Gor She
TTITLE3=Dance Of Bi Wang
TTITLE4=Charm Of ZhaNian 
TTITLE5=Folk Song 
TTITLE6=Song Of Reply 
TTITLE7=Ruins 
TTITLE8=Nang Ma 
TTITLE9=Linka-The Summer Garden 
TTITLE10=Karlu 
TTITLE11=The Praises Of Bodhisattva 
EXTD=
EXTT0=
EXTT1=
EXTT2=
EXTT3=
EXTT4=
EXTT5=
EXTT6=
EXTT7=
EXTT8=
EXTT9=
EXTT10=
EXTT11=
PLAYORDER=
